<svg xmlns="http://www.w3.org/2000/svg" viewBox="0 0 250 250">
  <path fill="white" d="M224.38,129.68c0,5.35,0,10.51,0,15.67,0,10.45-.17,20.89-.1,31.34.11,16.33.34,32.67.54,49,.07,5.38-1.27,7.06-6.58,7.68a50.43,50.43,0,0,1-6.15.13q-23.31-.23-46.6-.5a14.29,14.29,0,0,1-3.7-.41c-5.22-1.48-6.44-3.21-6.46-8.62,0-7.94.09-15.89-.28-23.81-.31-6.54-.86-13-4.37-19a26.56,26.56,0,0,0-17.78-13.3c-8.66-2-17-1.07-24.41,3.62-7.85,4.95-12.08,12.63-12.7,21.79-.7,10.4-.78,20.84-.84,31.27,0,5.38-2.64,8-9.16,8.4-7,.4-14.11,0-21.16.11-8.48.09-17,.34-25.43.43a64,64,0,0,1-8.54-.39c-3.87-.49-5.33-2.37-5.29-6.32.12-13.12.31-26.24.39-39.36.08-13.92.06-27.85.09-41.78,0-5.25,0-10.5,0-15.72-10.16-.35-16.53-4.51-19.36-13-2.17-6.51-1.2-12.69,4-17.71A609.53,609.53,0,0,1,70.36,48.31C83.73,38.4,96.9,28.22,110.21,18.23c3.34-2.51,6.93-4.7,10.33-7.13,3.07-2.18,6-2.23,9.09,0,7.73,5.56,15.51,11.07,23.26,16.62,2.72,1.95,5.41,3.94,8.77,6.39,0-6-.07-11.45,0-16.86a16.93,16.93,0,0,1,.84-4.66c1.15-3.7,4.29-4,7.47-4.1,8.39-.21,16.78-.44,25.16-.57,5.29-.08,8.1,2.48,8.27,7.84.21,6.25.17,12.5.08,18.75-.13,8.84,0,17.71-.77,26.5-.34,4.05,1.14,6.1,3.91,8.52,11,9.54,21.48,19.61,32.57,29,6.5,5.5,7.86,18.58-.22,26A19.17,19.17,0,0,1,224.38,129.68Zm-98.9-79.17a5.38,5.38,0,0,0-.94.38C106.77,64.39,88.8,77.63,71.32,91.51c-10.25,8.14-19.72,17.28-29.49,26a3.27,3.27,0,0,0-.79,2.14c-.25,6.68-.52,13.37-.58,20.06-.06,7.05,0,14.11.21,21.16.42,18.74.92,37.49,1.35,56.23,0,1.81.61,2.47,2.54,2.37,4.36-.23,8.74-.24,13.11-.26,7.39,0,14.78,0,22.34,0,.4-7.45,1-14.45,1.09-21.46.11-8.81,2.83-16.69,7.08-24.29a37.2,37.2,0,0,1,24.36-18.56c24-6,47.52,3.77,55,31.68,1.52,5.67,1.48,11.8,2,17.73.38,4.85.44,9.72.65,14.86h37.71a19.88,19.88,0,0,0,.3-2.22c.35-10.62.86-21.24.95-31.87.18-20.07,0-40.15.23-60.23.07-4.66-1.25-7.65-4.88-10.82-12.58-11-24.75-22.33-38.31-32.16C152.3,71.83,139,61,125.48,50.51ZM23.36,116.19a40,40,0,0,0,5-3.29C43.87,99.71,59,86,74.87,73.33c15.07-12,31-23,46.52-34.38,2.49-1.83,5.12-1.72,7.68.16,2.17,1.58,4.24,3.29,6.44,4.81a746.57,746.57,0,0,1,77.93,61.54c3.69,3.35,7.51,6.58,11.44,9.64a5,5,0,0,0,6.62-.21c1.66-1.58,1.84-4.26.34-6.65a13,13,0,0,0-2-2.48c-3.84-3.61-7.54-7.39-11.61-10.7-11.87-9.64-23.79-19.23-35.89-28.59-17.39-13.43-35-26.59-52.41-40-4.78-3.67-4.78-3.7-9.61,0C109.08,35.11,97.66,43.44,86.43,52,74.22,61.4,62,70.77,50,80.44c-9.76,7.88-19.21,16.16-28.69,24.4A13.91,13.91,0,0,0,17.68,110C16.4,113.2,18.71,116.15,23.36,116.19ZM175.24,19.42c-.08,1-.22,1.93-.24,2.9-.06,5.35.54,10.82-.32,16-.81,4.87,1.35,7.3,4.75,9.67,2.72,1.89,5.32,3.95,8.34,6.2,0-4,0-7.51,0-11,.08-7.13.16-14.26.3-21.39,0-1.67-.55-2.48-2.28-2.46C182.41,19.45,179,19.42,175.24,19.42Z"/>
  <path fill="white" d="M125.17,141.93c-20.09,1-31.69-15.27-31.54-31.06.15-16.31,11.29-32.53,31.56-32.49S156.55,94.76,156.6,111C156.65,126.85,145.05,142.88,125.17,141.93Zm17.6-31.36c-.76-7.26-3.6-15.16-13.2-18.94a11.73,11.73,0,0,0-9,0c-8.21,3.07-11.59,9.73-13,17.57C106,118.31,110.18,124.29,119,127a21.63,21.63,0,0,0,14.1-.61C139.56,124,142.8,119.43,142.77,110.57Z"/>
</svg>
