<svg xmlns="http://www.w3.org/2000/svg" viewBox="0 0 250 250">
  <path fill="white" d="M18.07,130.16V117.29c.17-2.56.41-5.12.51-7.68.55-13.2,1-26.4,1.61-39.59s5.93-24.44,14.34-34.45A29.39,29.39,0,0,1,44.6,27.82,117.56,117.56,0,0,1,84.68,17.07c6.58-.61,13.17-1,19.77-1.28,11-.43,22.1-1,33.14-.86,9.07.15,18.13,1.33,27.19,2,12.81,1,25.3,3.46,36.77,9.39C212,31.72,219.84,39.81,223.87,51c5.62,15.56,7.83,31.78,8,48.27.1,9.64-.47,19.3-.16,28.93.7,21.32,0,42.46-6.32,63.06-3.41,11.19-9.42,20.88-19.32,27.07a72.63,72.63,0,0,1-30.31,10.85,326.7,326.7,0,0,1-40.89,1.92c-19.26-.34-38.52-1.64-57.75-2.9a213.68,213.68,0,0,1-22.75-3.13,21.54,21.54,0,0,1-14-9.14c-1.76-2.46-3.3-5.1-5.15-7.49-4.59-5.91-7.1-12.74-9.15-19.8-4.44-15.27-5.31-31.08-6.94-46.77C18.73,138,18.42,134.05,18.07,130.16Zm198.34-3.5q0-9.09,0-18.2a176.21,176.21,0,0,0-6.55-48.06,23.52,23.52,0,0,0-2.81-6.29A40.15,40.15,0,0,0,181,35.93,172.87,172.87,0,0,0,159.32,33c-9.85-.87-19.74-1.84-29.6-1.77-11.67.07-23.37.88-35,2a267.17,267.17,0,0,0-30.11,4.33c-14.2,3-22.23,12.88-25.77,26.44a79,79,0,0,0-2,15.9c-.54,10.7-.84,21.41-1,32.12-.1,7.67-.05,15.36.38,23,.46,8.1,1.42,16.18,2.23,24.26,1.12,11.3,3,22.47,7.4,33,4.08,9.75,10.3,17,21.8,17.9,5.87.44,11.71,1.24,17.57,1.63,10.42.71,20.85,1.58,31.28,1.75,12.22.19,24.45-.2,36.67-.53,10.45-.28,20.88-.92,30.93-4.16,15.38-4.95,26-14.57,29.47-30.82C217.19,161.13,217.56,143.92,216.41,126.66Z"/>
  <path fill="white" d="M127.34,169.53c-10.13,1.05-18.9-5.22-27.34-11.93-6-4.82-10.92-10.61-13.59-18.17A33.35,33.35,0,0,1,86,116.94c3.8-11.21,9.47-21.25,19.58-27.95,9.86-6.54,20.78-8.55,32.43-6.37A42,42,0,0,1,159,92.69c7.11,6.44,11.69,14.28,11.86,24.24.09,5.07.53,10.13.49,15.2-.09,11.8-5.24,21-14.66,28C148.39,166.31,139.37,170,127.34,169.53ZM154.44,125c-.33-3.3-.19-7.08-1.16-10.54-3.66-13.12-16.46-21.54-31.77-16.73C107.93,102,99,117.45,101.86,131.51c1.22,6.09,3.64,11.93,9.2,15.46a34.11,34.11,0,0,0,14,4.95c10.38,1.38,18.8-2.27,25.41-10a16.84,16.84,0,0,0,3.06-7.24C154.19,131.63,154.14,128.46,154.44,125Z"/>
  <path fill="white" d="M183.67,65.25a12.46,12.46,0,0,1-8.44,11.49,10.41,10.41,0,0,1-12.11-3.69,9.85,9.85,0,0,1-1-10.34,13.8,13.8,0,0,1,9.65-8.12C178.4,53,183.65,57.8,183.67,65.25Z"/>
</svg>
