<svg xmlns="http://www.w3.org/2000/svg" viewBox="0 0 250 250">
  <path fill="white" d="M123.41,13.22h7.5c27,0,54.08-.46,81.07-.16a57.23,57.23,0,0,1,9.57,1.07c4.13.76,6.47,3.75,6.43,8,0,4.47-.31,8.93-.25,13.39A9.27,9.27,0,0,0,229,39.93c4.11,7,8.45,13.84,12.53,20.84a13.47,13.47,0,0,1,1.63,5.56c.89,11,1.62,22.11-1.23,33a23,23,0,0,1-9.33,13.58,3.93,3.93,0,0,0-1.47,2.79c0,20.72.21,41.43.26,62.14q0,18.35-.25,36.68a30,30,0,0,1-1.25,7.37c-1.66,6-5.34,8.48-13.11,8.65-8.65.19-17.31,0-26,.1-16.42.12-32.84.37-49.26.43-12.13,0-24.26-.18-36.39-.18-10,0-20,.25-30,.2-13.56-.07-27.13-.31-40.69-.49a19.07,19.07,0,0,1-2.93-.2c-8.8-1.41-11.76-4.76-12.43-15.1-.47-7.29-.44-14.63-.43-21.95,0-15.27.19-30.54.29-45.81.06-10.35.09-20.7.19-31.05a4.12,4.12,0,0,0-1.95-4c-6.33-4.35-9-10.88-10-18.17a95.14,95.14,0,0,1,.19-29.61c.72-4.34,3.82-8.34,6.13-12.32,2.68-4.62,5.75-9,8.49-13.6a6.66,6.66,0,0,0,.47-3.34c-.05-4.37-.25-8.74-.29-13.12,0-4.77,2.5-7.85,7.25-8.33,16.56-1.67,33.14-1,49.8-.95Q101.3,13.23,123.41,13.22ZM56.12,107.55a4.66,4.66,0,0,0-.79.67c-4.18,5.28-9.81,8.24-16.23,9.64-2.14.47-2.78,1.3-2.75,3.33.07,5.71.11,11.42,0,17.13-.18,9.55-.47,19.1-.79,28.64,0,1.66.38,2.46,2.18,2.48,11,.11,22,.47,32.94.37,9.9-.09,19.8-.94,29.7-.95,19.55,0,39.09.4,58.63.51,17.58.11,35.17.06,52.76.06a27,27,0,0,0,2.79-.3c0-1.19,0-2.16,0-3.13q-.37-22.09-.77-44.18a6.77,6.77,0,0,0-.17-2.12c-.2-.57-.7-1.35-1.18-1.45-7.31-1.51-13.62-4.7-18.32-10.91l-1,1.51a21.26,21.26,0,0,1-24,8.67,48.48,48.48,0,0,1-11.72-5.63c-3.36-2.2-6.14-5.29-9.25-8.06-4.18,10-11.47,15.89-23,15.93S106.17,113.8,102,104c-3.79,3.18-7.17,6.68-11.16,9.22C78.42,121.15,65.11,120.75,56.12,107.55Zm-20.21,71.3c-.12.28-.26.44-.26.6.34,11.5.67,23,1.12,34.51,0,.56,1.2,1.51,1.87,1.53,3.81.15,7.64.11,11.46.08,16.95-.15,33.9-.4,50.86-.47,14-.06,28,.11,42,.15,13.11,0,26.23,0,39.34.06q14.31.06,28.6.3c2.06,0,2.5-.79,2.55-2.69.21-7.32.65-14.63.88-21.94.13-4.06,0-8.12,0-12.13Zm158-98.71.63.24c.25,1,.46,2,.74,3,3,10.16,8.9,17.94,18.92,21.73,5.13,1.94,11.1.49,14.37-5.71,4.08-7.75,4.63-15.81,4.1-24.12-.14-2.17-1.46-4.29-2.39-6.36a2.07,2.07,0,0,0-1.59-1c-8,.26-16.07.36-24.08,1-20.92,1.61-41.86,3.41-62.84,2-22.31-1.51-44.63-.94-66.94-1-18.12,0-36.24.75-54.36,1.1-1.81,0-2.49.64-2.72,2.41-1.32,10-.44,19.51,5.15,28.24a9,9,0,0,0,6.63,4c4.24.68,8-.57,11.57-3,8-5.41,12.51-13,14.79-22.39a10.47,10.47,0,0,1,2.17,3.59c1.78,6.23,2.6,12.8,6.53,18.25a12.75,12.75,0,0,0,11.19,5.74c8.21-.3,13.59-5.17,17.77-11.67a37.2,37.2,0,0,0,5.74-18.58c4.75-.53,5.19-.19,5.83,4,.41,2.64.94,5.26,1.38,7.9a27.18,27.18,0,0,0,5.7,12.8,15.69,15.69,0,0,0,12.28,6.12c7.7.2,14-4,17-12.22,1.73-4.62,2.48-9.63,3.43-14.51.81-4.21,1.42-4.77,5.9-4,.46,9.21,3.57,17.44,10.15,24,4.61,4.61,10.11,7.37,16.91,5.65s9.43-7.18,11.37-13.09c1.13-3.46,1.77-7.08,2.8-10.58A19.6,19.6,0,0,1,193.91,80.14Zm29.87-22c-2.72-4.38-5-8.38-7.68-12.15a5.4,5.4,0,0,0-3.72-2c-13-.49-26.06-1.14-39.08-1.09-45.08.19-90.15.66-135.23,1a5,5,0,0,0-4.53,2.66c-1.9,3-3.77,6-5.68,9-1.56,2.45-3.15,4.87-5,7.73,3.07-.2,5.61-.47,8.15-.52q40-.75,80.05-1.45c31.5-.59,63-1.14,94.5-1.84C211.5,59.42,217.43,58.68,223.78,58.19Zm-12.43-24.7a22.48,22.48,0,0,1,0-2.73c.35-2.79-1-3.43-3.56-3.41-6.14,0-12.29-.33-18.44-.35q-38.53-.11-77.07-.08c-21.06,0-42.11.21-63.17.34-2.58,0-5.17.19-7.75.12-2-.06-2.75.78-2.6,2.71.09,1.2,0,2.41,0,3.4Z"/>
  <path fill="white" d="M144.51,150.75c-3.07,0-4.61-1.7-4.14-3.86a8.4,8.4,0,0,1,1.67-3.57c4.66-5.38,9.36-10.71,14.21-15.92,1.23-1.33,2.92-3.38,4.94-1.9,1.87,1.38.5,3.54-.29,5.12a60.5,60.5,0,0,1-13.3,18.21A16.44,16.44,0,0,1,144.51,150.75Z"/>
  <path fill="white" d="M100.2,152.19c-3.4,0-5.19-2.25-4.4-4.59a10.83,10.83,0,0,1,2.28-3.87c4.61-4.93,9.29-9.81,14.06-14.58,1.33-1.32,3.12-3.27,5-1.73,2.17,1.72.37,3.84-.76,5.4-4,5.54-8.13,11-12.39,16.38A17.84,17.84,0,0,1,100.2,152.19Z"/>
  <path fill="white" d="M121.87,151.43c-2.73-.18-3.92-1.26-3.76-3.28a5.9,5.9,0,0,1,1.26-3.14c5.19-6,10.41-12,15.82-17.78,1.05-1.12,3.59-2.35,4.43-1.84,2.11,1.27.71,3.53-.29,4.91-4.7,6.5-9.55,12.88-14.48,19.2C124.06,150.52,122.57,151,121.87,151.43Z"/>
</svg>
