<svg xmlns="http://www.w3.org/2000/svg" viewBox="0 0 250 250">
  <path fill="white" d="M97.49,238h-1c-2.38-.94-3.21-2.66-3.16-5.21.12-7.07,0-18.73.08-25.8,0-2.2-.78-3.15-3-3.14-7.23,0-14.47,0-21.71,0-13.43-.14-21.08.67-34.52.41a44.18,44.18,0,0,1-7.68-1A7.67,7.67,0,0,1,20,195.78c-.37-13-1.25-103.09-1.06-122.57.15-15.08.2-30.18-.07-45.26C18.75,22.92,22,18.42,26,18c6.42-.66,13,0,19.48-.21,14.12-.48,22.45-.65,36.58-1,13.78-.31,27.57-.9,41.35-.92,24.57-.05,49.13.16,73.69.41,7.72.08,15.44.55,23.15,1,6.42.39,9.71,3.66,10.31,10,.25,2.57.38,5.16.4,7.74.18,23,.38,46,.48,69,.08,16.47-.16,34.94.13,51.4.11,6.28-1.69,10.7-6.48,15.2-15.32,14.39-17.31,13.87-32.22,28.69a7.52,7.52,0,0,1-5.64,2.55c-11.72,0-25.54.51-37.23.05-3.45-.13-9.38,3-12,5-4,3-16.6,12.67-22,17C110.12,228.72,103.21,233.06,97.49,238Zm6.88-20.73c1.81-2,5.54-4.28,7.63-6.27,11-9,18-14,29.57-22.88,2.35-1.8,4.23-2.71,7.06-2.68,12,.13,24,.08,36,0a5.33,5.33,0,0,0,3.22-1.08c9.14-7.87,18.19-15.86,27.32-23.73a4.89,4.89,0,0,0,1.93-4.16c-.07-17,0-34-.05-50.94-.09-18-.38-36-.46-54,0-5.76-.63-11.53-.55-17.29.05-3.29-.54-3.8-3.93-3.94-4.56-.18-8.12-.38-12.67-.46-18.88-.32-37.75-.91-56.63-.81-19.47.1-39,.71-58.42,1.43-12.39.46-33.59.62-46,1.33-2.42.13-3.11,1.24-3,3.42.21,5.6.42,11.19.49,16.79q.38,28.58.63,57.14.32,35,.54,70.08c0,2.15,1.07,3.51,3,3.78,3.65.5,19.27,1.92,23,2,13.27.28,23.42.39,36.69.51,2.17,0,3.45.7,3.58,3,.34,5.93.86,11.85,1,17.78S104.37,211.25,104.37,217.27Z"/>
  <path fill="white" d="M168.08,107.13a89,89,0,0,1-.69,10.7c-.4,3.17-1.11,6.56-3.48,8.71-3,2.71-7.88,2.44-11.22.17a12,12,0,0,1-4.27-5.24,23.94,23.94,0,0,1-1.32-8.3l-.66-16.7a35.26,35.26,0,0,1,.34-8.28,11.65,11.65,0,0,1,4.05-7,8.81,8.81,0,0,1,8.4-1.15c5.94,2.34,7.53,9.45,8.17,15.07A101.39,101.39,0,0,1,168.08,107.13Z"/>
  <path fill="white" d="M92,107.26c-.48-8.66.69-18.29,4.53-24.5,2.18-3.53,6.37-6.5,10.28-5.13a8.18,8.18,0,0,1,4.63,5,23.87,23.87,0,0,1,1.11,6.94l1.15,18.59c.25,4,.48,8.08-.78,11.86s-4.4,7.22-8.37,7.59c-5.32.51-9.69-4.56-11-9.73A57,57,0,0,1,92,107.26Z"/>
</svg>
