<svg xmlns="http://www.w3.org/2000/svg" viewBox="0 0 250 250">
  <path fill="white" d="M56.38,160.1c-5.68-8-11.2-15.34-16.22-23-6.22-9.48-11.5-19.48-14.23-30.61C22.57,92.75,19,79,16,65.22a27,27,0,0,1,.34-11.35c1.33-5.94,5.2-7.55,10.73-5.08,5.86,2.61,11.63,5.45,17.51,8a321.74,321.74,0,0,0,61.17,19.67c.24.05.5,0,.39,0,1-5.51,1.72-11,3.17-16.29a56.83,56.83,0,0,1,13.86-24.72c9.44-9.73,20.8-15.92,35-15.74,8.7.1,17,1.59,24.81,5.53a78.58,78.58,0,0,0,8.65,3.56,4.22,4.22,0,0,0,2.76-.13c10.24-4.16,20.49-8.29,30.65-12.62,7.52-3.21,13.43.24,14.2,8.41.69,7.3-1.8,14-3.64,20.85s-4.11,13.74-5.76,20.7a19.19,19.19,0,0,0,.54,12c8.25,20.65,10.2,42.22,4.6,63.75a117.2,117.2,0,0,1-30.74,53.55l-1.34,1.31c-22.61,21.61-54.06,33.56-85.33,32.87-38.23-.85-74-20.33-97.33-50.26-4-5.08-6.19-11.58-8.75-17.63a10.17,10.17,0,0,1-.21-7c1-2.59,4-3.7,6.73-3.82a16.37,16.37,0,0,1,6.14,1.4c5.34,2,10.47,4.67,16,6C45.31,159.54,50.9,159.53,56.38,160.1Zm63.75-78.91c.7.3,1.17.53,1.66.73,16.61,6.69,29.12,17.55,37.21,33.93,8.34,16.9,5.11,41.84-11.14,54.47C138,178,127,183.17,114.3,183.33c-15.83.2-30.38-4.33-43.67-12.86a5.79,5.79,0,0,0-4.95-.84c-9.76,2.26-19.6,4-29.65,1.94-2.53-.53-5-1.37-8.26-2.27.9,1.48,1.35,2.39,1.95,3.2,19.74,26.34,50.91,42.89,84,43.53a115.88,115.88,0,0,0,55.14-13.14c36-18.59,60.48-56.34,54.81-97.51a115,115,0,0,0-7.76-27.66c-.69-1.69-1.43-3.68-1.18-5.39,1.06-7.26,2.38-14.48,3.8-21.68,1-5,2.53-10,3.41-15,.53-3-.63-3.58-3.51-2.51q-13.53,5-27.1,9.91a10.28,10.28,0,0,1-9.24-.83,77.45,77.45,0,0,0-8.81-4.47c-18.83-8.31-36.69,1.37-44.64,14.78C123.37,61.35,121.54,71,120.13,81.19ZM42.57,110a29.22,29.22,0,0,0,1.1,2.87c3.43,6.45,6.92,12.88,10.34,19.33a13.89,13.89,0,0,0,6.67,5.92c12.4,6,25.39,7.46,38.88,5.26,2.91-.48,5.8-1,8.72-1.35a2.28,2.28,0,0,1,2,.86,2.37,2.37,0,0,1-.63,2.11,16.19,16.19,0,0,1-3.51,2.38C98,151.62,89.24,153,80.2,153c-2.49,0-5-.3-8-.5,9.42,8,19.21,14.2,31.19,15.87,9.14,1.27,18.19.53,25.88-5A73.56,73.56,0,0,0,142,151.26a20.91,20.91,0,0,0,4.69-9.66c1.81-10.66-1.87-20-8.55-28.21C127,99.55,111.1,93.62,94.88,88.61,84.26,85.33,73.29,83.21,62.64,80c-11.2-3.35-22.27-7.2-32.5-14.09,1,5.31,1.84,10.2,3,15,.58,2.47,1.22,5.19,2.7,7.13a43.91,43.91,0,0,0,8.14,8.09c9.92,7.62,20.68,13.63,33,16.49a53.57,53.57,0,0,1,6.79,2.55v1a16.42,16.42,0,0,1-3.64,1.65C66.75,120.22,54.79,115.7,42.57,110Z"/>
  <path fill="white" d="M184,79.35c.1,7.56-4.09,12.32-10.95,12.43-7.1.1-13.17-5.16-13.3-11.52-.14-6.89,5.79-12.57,13.18-12.63C179.59,67.58,183.87,72.11,184,79.35Z"/>
</svg>
